<svg xmlns="http://www.w3.org/2000/svg" width="1080" height="2400" viewBox="0 0 1080 2400"><style>
@font-face{font-family:'JetBrains Mono';font-weight:400;src:url('fonts/jetbrainsmono_regular.ttf')}
@font-face{font-family:'JetBrains Mono';font-weight:600;src:url('fonts/jetbrainsmono_semibold.ttf')}
@font-face{font-family:'JetBrains Mono';font-weight:700;src:url('fonts/jetbrainsmono_bold.ttf')}
</style><rect width="1080" height="2400" fill="#F5F9FA"/><clipPath id="iconclip_l"><rect x="48.0" y="84.0" width="120.0" height="120.0" rx="30.0"/></clipPath><text x="48.0" y="138.0" font-family="'Times New Roman','SimSun',serif" font-size="60.0" font-weight="600" fill="#1F2A30" text-anchor="start" dominant-baseline="central">设置</text><rect x="48.0" y="216.0" width="984.0" height="372.0" rx="72.0" fill="#E8F0F3"/><text x="96.0" y="300.0" font-family="'Times New Roman','SimSun',serif" font-size="48.0" font-weight="600" fill="#1F2A30" text-anchor="start" dominant-baseline="central">外观</text><line x1="96.0" y1="336.0" x2="984.0" y2="336.0" stroke="#CBD9DE" stroke-width="3.0" stroke-opacity="1.00" stroke-linecap="butt"/><text x="96.0" y="427.5" font-family="'Times New Roman','SimSun',serif" font-size="39.0" font-weight="400" fill="#5A6B74" text-anchor="start" dominant-baseline="central">主题</text><rect x="288.0" y="372.0" width="216.0" height="111.0" rx="150.0" fill="#177CB0"/><text x="396.0" y="427.5" font-family="'Times New Roman','SimSun',serif" font-size="39.0" font-weight="600" fill="#FFFFFF" text-anchor="middle" dominant-baseline="central">跟随系统</text><rect x="528.0" y="372.0" width="216.0" height="111.0" rx="150.0" fill="#F5F9FA" stroke="#CBD9DE" stroke-width="3.0" stroke-opacity="1.00"/><text x="636.0" y="427.5" font-family="'Times New Roman','SimSun',serif" font-size="39.0" font-weight="400" fill="#5A6B74" text-anchor="middle" dominant-baseline="central">亮色</text><rect x="768.0" y="372.0" width="216.0" height="111.0" rx="150.0" fill="#F5F9FA" stroke="#CBD9DE" stroke-width="3.0" stroke-opacity="1.00"/><text x="876.0" y="427.5" font-family="'Times New Roman','SimSun',serif" font-size="39.0" font-weight="400" fill="#5A6B74" text-anchor="middle" dominant-baseline="central">暗色</text><text x="96.0" y="525.0" font-family="'Times New Roman','SimSun',serif" font-size="36.0" font-weight="400" fill="#7C8B92" text-anchor="start" dominant-baseline="central">跟随系统时，深色模式开关即时生效</text><rect x="48.0" y="624.0" width="984.0" height="627.0" rx="72.0" fill="#E8F0F3"/><text x="96.0" y="708.0" font-family="'Times New Roman','SimSun',serif" font-size="48.0" font-weight="600" fill="#1F2A30" text-anchor="start" dominant-baseline="central">接入信息</text><line x1="96.0" y1="744.0" x2="984.0" y2="744.0" stroke="#CBD9DE" stroke-width="3.0" stroke-opacity="1.00" stroke-linecap="butt"/><text x="96.0" y="816.0" font-family="'Times New Roman','SimSun',serif" font-size="42.0" font-weight="400" fill="#5A6B74" text-anchor="start" dominant-baseline="central">服务商</text><text x="984.0" y="816.0" font-family="'Times New Roman','SimSun',serif" font-size="42.0" font-weight="500" fill="#1F2A30" text-anchor="end" dominant-baseline="central">Z.AI</text><text x="96.0" y="909.0" font-family="'Times New Roman','SimSun',serif" font-size="42.0" font-weight="400" fill="#5A6B74" text-anchor="start" dominant-baseline="central">套餐</text><text x="984.0" y="909.0" font-family="'Times New Roman','SimSun',serif" font-size="42.0" font-weight="500" fill="#1F2A30" text-anchor="end" dominant-baseline="central">coding-plan</text><text x="96.0" y="1002.0" font-family="'Times New Roman','SimSun',serif" font-size="42.0" font-weight="400" fill="#5A6B74" text-anchor="start" dominant-baseline="central">状态</text><text x="984.0" y="1002.0" font-family="'Times New Roman','SimSun',serif" font-size="42.0" font-weight="500" fill="#21A675" text-anchor="end" dominant-baseline="central">127.0.0.1:8080 · 运行中</text><text x="96.0" y="1095.0" font-family="'Times New Roman','SimSun',serif" font-size="42.0" font-weight="400" fill="#5A6B74" text-anchor="start" dominant-baseline="central">登录</text><text x="984.0" y="1095.0" font-family="'Times New Roman','SimSun',serif" font-size="42.0" font-weight="500" fill="#1F2A30" text-anchor="end" dominant-baseline="central">已登录</text><text x="96.0" y="1194.0" font-family="'Times New Roman','SimSun',serif" font-size="36.0" font-weight="400" fill="#7C8B92" text-anchor="start" dominant-baseline="central">切换服务商/套餐在主页「接入配置」卡</text><rect x="48.0" y="1287.0" width="984.0" height="876.0" rx="72.0" fill="#E8F0F3"/><text x="96.0" y="1371.0" font-family="'Times New Roman','SimSun',serif" font-size="48.0" font-weight="600" fill="#1F2A30" text-anchor="start" dominant-baseline="central">关于</text><line x1="96.0" y1="1407.0" x2="984.0" y2="1407.0" stroke="#CBD9DE" stroke-width="3.0" stroke-opacity="1.00" stroke-linecap="butt"/><text x="96.0" y="1479.0" font-family="'Times New Roman','SimSun',serif" font-size="42.0" font-weight="400" fill="#5A6B74" text-anchor="start" dominant-baseline="central">应用</text><text x="984.0" y="1479.0" font-family="'Times New Roman','SimSun',serif" font-size="42.0" font-weight="500" fill="#1F2A30" text-anchor="end" dominant-baseline="central">ZCode Proxy</text><text x="96.0" y="1572.0" font-family="'Times New Roman','SimSun',serif" font-size="42.0" font-weight="400" fill="#5A6B74" text-anchor="start" dominant-baseline="central">版本</text><text x="984.0" y="1572.0" font-family="'Times New Roman','SimSun',serif" font-size="42.0" font-weight="500" fill="#1F2A30" text-anchor="end" dominant-baseline="central">4.6.3</text><text x="96.0" y="1665.0" font-family="'Times New Roman','SimSun',serif" font-size="42.0" font-weight="400" fill="#5A6B74" text-anchor="start" dominant-baseline="central">控制协议</text><text x="984.0" y="1665.0" font-family="'Times New Roman','SimSun',serif" font-size="42.0" font-weight="500" fill="#1F2A30" text-anchor="end" dominant-baseline="central">Node · 127.0.0.1 本地监听</text><text x="96.0" y="1806.0" font-family="'Times New Roman','SimSun',serif" font-size="42.0" font-weight="400" fill="#5A6B74" text-anchor="start" dominant-baseline="central">自动检查更新</text><text x="96.0" y="1863.0" font-family="'Times New Roman','SimSun',serif" font-size="36.0" font-weight="400" fill="#7C8B92" text-anchor="start" dominant-baseline="central">启动时查询 GitHub Releases</text><rect x="828.0" y="1782.0" width="156.0" height="96.0" rx="48.0" fill="#177CB0"/><circle cx="936.0" cy="1830.0" r="36.0" fill="#FFFFFF"/><text x="96.0" y="1920.0" font-family="'Times New Roman','SimSun',serif" font-size="42.0" font-weight="400" fill="#5A6B74" text-anchor="start" dominant-baseline="central">更新</text><text x="216.0" y="1920.0" font-family="'Times New Roman','SimSun',serif" font-size="39.0" font-weight="400" fill="#21A675" text-anchor="start" dominant-baseline="central">已是最新（v4.6.3）</text><text x="984.0" y="1920.0" font-family="'Times New Roman','SimSun',serif" font-size="39.0" font-weight="400" fill="#177CB0" text-anchor="end" dominant-baseline="central">检查更新</text><text x="96.0" y="1995.0" font-family="'Times New Roman','SimSun',serif" font-size="36.0" font-weight="400" fill="#7C8B92" text-anchor="start" dominant-baseline="central">更新来自 GitHub Releases · TriDefender/zcode-api</text><text x="96.0" y="2046.0" font-family="'Times New Roman','SimSun',serif" font-size="36.0" font-weight="400" fill="#7C8B92" text-anchor="start" dominant-baseline="central">上游：Z.AI / 智谱开放平台（OAuth 登录）</text><line x1="0.0" y1="2124.0" x2="1080.0" y2="2124.0" stroke="#CBD9DE" stroke-width="3.0" stroke-opacity="1.00" stroke-linecap="butt"/><rect x="0.0" y="2127.0" width="1080.0" height="273.0" rx="0.0" fill="#E0EAEE"/><path d="M10 20v-6h4v6h5v-8h3L12 3 2 12h3v8z" fill="#5A6B74" transform="translate(147.0,2154.0) scale(2.750)"/><text x="180.0" y="2268.0" font-family="'Times New Roman','SimSun',serif" font-size="33.0" font-weight="400" fill="#5A6B74" text-anchor="middle" dominant-baseline="central">主页</text><path d="M3 18h18v-2H3v2zm0-5h18v-2H3v2zm0-7v2h18V6H3z" fill="#5A6B74" transform="translate(507.0,2154.0) scale(2.750)"/><text x="540.0" y="2268.0" font-family="'Times New Roman','SimSun',serif" font-size="33.0" font-weight="400" fill="#5A6B74" text-anchor="middle" dominant-baseline="central">日志</text><rect x="786.0" y="2148.0" width="228.0" height="78.0" rx="150.0" fill="#D8EAEF"/><path d="M19.14 12.94c.04-.3.06-.61.06-.94 0-.32-.02-.64-.07-.94l2.03-1.58c.18-.14.23-.41.12-.61l-1.92-3.32c-.12-.22-.37-.29-.59-.22l-2.39.96c-.5-.38-1.03-.7-1.62-.94l-.36-2.54c-.04-.24-.24-.41-.48-.41h-3.84c-.24 0-.43.17-.47.41l-.36 2.54c-.59.24-1.13.57-1.62.94l-2.39-.96c-.22-.08-.47 0-.59.22L2.74 8.87c-.12.21-.08.47.12.61l2.03 1.58c-.05.3-.09.63-.09.94s.02.64.07.94l-2.03 1.58c-.18.14-.23.41-.12.61l1.92 3.32c.12.22.37.29.59.22l2.39-.96c.5.38 1.03.7 1.62.94l.36 2.54c.05.24.24.41.48.41h3.84c.24 0 .44-.17.47-.41l.36-2.54c.59-.24 1.13-.56 1.62-.94l2.39.96c.22.08.47 0 .59-.22l1.92-3.32c.12-.22.07-.47-.12-.61l-2.01-1.58zM12 15.6c-1.98 0-3.6-1.62-3.6-3.6s1.62-3.6 3.6-3.6 3.6 1.62 3.6 3.6-1.62 3.6-3.6 3.6z" fill="#177CB0" transform="translate(867.0,2154.0) scale(2.750)"/><text x="900.0" y="2268.0" font-family="'Times New Roman','SimSun',serif" font-size="33.0" font-weight="600" fill="#177CB0" text-anchor="middle" dominant-baseline="central">设置</text></svg>